<svg width="60" height="60" viewBox="0 0 60 60" fill="none" xmlns="http://www.w3.org/2000/svg">
<path d="M30 60C46.5685 60 60 46.5685 60 30C60 13.4315 46.5685 0 30 0C13.4315 0 0 13.4315 0 30C0 46.5685 13.4315 60 30 60Z" fill="white"/>
<path d="M20.065 31.1529L20.035 31.1469L35.768 31.1469L31.783 35.0559C31.6873 35.1498 31.6113 35.2619 31.5595 35.3855C31.5076 35.5091 31.4809 35.6418 31.4809 35.7759C31.4809 35.9099 31.5076 36.0427 31.5595 36.1663C31.6113 36.2899 31.6873 36.402 31.783 36.4959L32.4 37.1029C32.5964 37.2928 32.8588 37.3989 33.132 37.3989C33.4052 37.3989 33.6676 37.2928 33.864 37.1029L40.7 30.4179C40.7956 30.3241 40.8716 30.2123 40.9234 30.0888C40.9752 29.9653 41.002 29.8328 41.002 29.6989C41.002 29.565 40.9752 29.4324 40.9234 29.309C40.8716 29.1855 40.7956 29.0736 40.7 28.9799L33.869 22.2939C33.6725 22.1042 33.4101 21.9982 33.137 21.9982C32.8639 21.9982 32.6015 22.1042 32.405 22.2939L31.785 22.9009C31.6895 22.994 31.6137 23.1054 31.5622 23.2284C31.5107 23.3514 31.4844 23.4835 31.485 23.6169C31.4848 23.7478 31.5114 23.8774 31.5629 23.9978C31.6145 24.1181 31.6901 24.2267 31.785 24.3169L35.815 28.2479H20.051C19.7743 28.2507 19.5097 28.3614 19.3134 28.5564C19.1171 28.7514 19.0047 29.0153 19 29.2919V30.1509C19.0107 30.4242 19.1283 30.6824 19.3275 30.8698C19.5267 31.0572 19.7916 31.1589 20.065 31.1529Z" fill="#333333"/>
</svg>
