<svg width="20" height="20" viewBox="0 0 20 20" fill="none" xmlns="http://www.w3.org/2000/svg">
<path d="M13.6941 2.0084H11.7751C11.2903 1.9843 10.806 2.06447 10.3549 2.24349C9.9037 2.42251 9.49619 2.69622 9.15981 3.04615C8.82344 3.39607 8.56603 3.81408 8.40497 4.27196C8.2439 4.72984 8.18291 5.21694 8.22613 5.7004V7.4004H6.29713C6.25722 7.40039 6.21772 7.40834 6.18092 7.42379C6.14413 7.43924 6.11079 7.46188 6.08285 7.49037C6.05491 7.51887 6.03294 7.55265 6.01822 7.58975C6.0035 7.62684 5.99633 7.6665 5.99713 7.7064V10.1744C5.99633 10.2143 6.0035 10.254 6.01822 10.291C6.03294 10.3281 6.05491 10.3619 6.08285 10.3904C6.11079 10.4189 6.14413 10.4415 6.18092 10.457C6.21772 10.4725 6.25722 10.4804 6.29713 10.4804H8.22613V16.7034C8.22533 16.7433 8.2325 16.783 8.24722 16.82C8.26194 16.8571 8.28391 16.8909 8.31185 16.9194C8.33979 16.9479 8.37313 16.9705 8.40992 16.986C8.44672 17.0015 8.48622 17.0094 8.52613 17.0094H11.0431C11.083 17.0094 11.1225 17.0015 11.1593 16.986C11.1961 16.9705 11.2295 16.9479 11.2574 16.9194C11.2853 16.8909 11.3073 16.8571 11.322 16.82C11.3368 16.783 11.3439 16.7433 11.3431 16.7034V10.4794H13.5991C13.639 10.4794 13.6785 10.4715 13.7153 10.456C13.7521 10.4405 13.7855 10.4179 13.8134 10.3894C13.8414 10.3609 13.8633 10.3271 13.878 10.29C13.8928 10.253 13.8999 10.2133 13.8991 10.1734V7.7084C13.8992 7.62764 13.8676 7.55008 13.8111 7.4924C13.7832 7.46393 13.7499 7.44131 13.7132 7.42586C13.6764 7.4104 13.637 7.40243 13.5971 7.4024H11.3471V5.9594C11.3471 5.2664 11.5101 4.9134 12.4011 4.9134H13.6941C13.734 4.9134 13.7735 4.90545 13.8103 4.89C13.8471 4.87455 13.8805 4.85191 13.9084 4.82342C13.9363 4.79492 13.9583 4.76114 13.973 4.72404C13.9878 4.68695 13.9949 4.64729 13.9941 4.6074V2.3174C13.9953 2.27725 13.9885 2.23727 13.9739 2.19983C13.9594 2.16238 13.9375 2.12824 13.9095 2.09942C13.8815 2.0706 13.8481 2.0477 13.8111 2.03206C13.7741 2.01643 13.7343 2.00838 13.6941 2.0084Z" fill="#FF9C41"/>
</svg>
