<svg width="20" height="20" viewBox="0 0 20 20" fill="none" xmlns="http://www.w3.org/2000/svg">
<path d="M13.6971 2.00446H11.7781C11.2933 1.97877 10.809 2.06425 10.3578 2.25514C9.90663 2.44603 9.49912 2.73788 9.16274 3.11101C8.82637 3.48414 8.56896 3.92986 8.4079 4.4181C8.24683 4.90633 8.18584 5.42573 8.22906 5.94123V7.75394H6.30006C6.26015 7.75393 6.22065 7.76241 6.18385 7.77889C6.14706 7.79536 6.11372 7.8195 6.08578 7.84989C6.05784 7.88027 6.03587 7.9163 6.02115 7.95585C6.00643 7.9954 5.99926 8.03768 6.00006 8.08023V10.7119C5.99926 10.7544 6.00643 10.7967 6.02115 10.8362C6.03587 10.8758 6.05784 10.9118 6.08578 10.9422C6.11372 10.9726 6.14706 10.9967 6.18385 11.0132C6.22065 11.0297 6.26015 11.0381 6.30006 11.0381H8.22906V17.6737C8.22826 17.7163 8.23543 17.7585 8.25015 17.7981C8.26487 17.8376 8.28684 17.8737 8.31478 17.9041C8.34272 17.9344 8.37606 17.9586 8.41285 17.9751C8.44965 17.9915 8.48915 18 8.52906 18H11.0461C11.086 18 11.1255 17.9915 11.1623 17.9751C11.1991 17.9586 11.2324 17.9344 11.2603 17.9041C11.2883 17.8737 11.3103 17.8376 11.325 17.7981C11.3397 17.7585 11.3469 17.7163 11.3461 17.6737V11.0371H13.6021C13.642 11.0371 13.6815 11.0286 13.7183 11.0121C13.7551 10.9957 13.7884 10.9715 13.8163 10.9411C13.8443 10.9107 13.8663 10.8747 13.881 10.8352C13.8957 10.7956 13.9029 10.7533 13.9021 10.7108V8.08236C13.9022 7.99626 13.8706 7.91355 13.8141 7.85204C13.7862 7.82169 13.7529 7.79757 13.7161 7.78109C13.6794 7.76461 13.6399 7.75611 13.6001 7.75607H11.3501V6.21741C11.3501 5.47846 11.5131 5.10206 12.4041 5.10206H13.6971C13.737 5.10207 13.7765 5.09359 13.8133 5.07711C13.8501 5.06064 13.8834 5.0365 13.9113 5.00611C13.9393 4.97573 13.9612 4.9397 13.976 4.90015C13.9907 4.8606 13.9979 4.81831 13.9971 4.77577V2.33395C13.9983 2.29114 13.9914 2.24851 13.9769 2.20858C13.9623 2.16866 13.9404 2.13225 13.9124 2.10152C13.8845 2.07079 13.851 2.04637 13.814 2.0297C13.777 2.01302 13.7372 2.00444 13.6971 2.00446Z" fill="#333333"/>
</svg>
