<svg width="24" height="24" viewBox="0 0 24 24" fill="none" xmlns="http://www.w3.org/2000/svg">
<path fill-rule="evenodd" clip-rule="evenodd" d="M2.5 6C2.5 5.30964 3.05964 4.75 3.75 4.75H20.25C20.9404 4.75 21.5 5.30964 21.5 6C21.5 6.69036 20.9404 7.25 20.25 7.25H3.75C3.05964 7.25 2.5 6.69036 2.5 6ZM2.5 12C2.5 11.3096 3.05964 10.75 3.75 10.75H20.25C20.9404 10.75 21.5 11.3096 21.5 12C21.5 12.6904 20.9404 13.25 20.25 13.25H3.75C3.05964 13.25 2.5 12.6904 2.5 12ZM2.5 18C2.5 17.3096 3.05964 16.75 3.75 16.75H20.25C20.9404 16.75 21.5 17.3096 21.5 18C21.5 18.6904 20.9404 19.25 20.25 19.25H3.75C3.05964 19.25 2.5 18.6904 2.5 18Z" fill="#333333"/>
</svg>
