<svg width="20" height="20" viewBox="0 0 20 20" fill="none" xmlns="http://www.w3.org/2000/svg">
<path d="M12.9344 3H7.0656C5.98772 3.00124 4.95433 3.42997 4.19215 4.19215C3.42997 4.95433 3.00124 5.98772 3 7.0656L3 12.9307C3.00049 14.0091 3.42887 15.0433 4.19111 15.8063C4.95334 16.5692 5.98714 16.9985 7.0656 17H12.9307C14.0092 16.9998 15.0435 16.5715 15.8065 15.8092C16.5695 15.0469 16.9988 14.0129 17 12.9344V7.0656C16.9998 5.98741 16.5713 4.95345 15.8089 4.19106C15.0465 3.42867 14.0126 3.00025 12.9344 3V3ZM10 13.1005C9.38677 13.1005 8.78732 12.9187 8.27744 12.578C7.76756 12.2373 7.37015 11.7531 7.13548 11.1865C6.90081 10.62 6.83941 9.99656 6.95904 9.39512C7.07868 8.79367 7.37397 8.24121 7.80759 7.80759C8.24121 7.37397 8.79367 7.07868 9.39512 6.95904C9.99656 6.83941 10.62 6.90081 11.1865 7.13548C11.7531 7.37015 12.2373 7.76756 12.578 8.27744C12.9187 8.78732 13.1005 9.38677 13.1005 10C13.0993 10.8219 12.7722 11.6098 12.191 12.191C11.6098 12.7722 10.8219 13.0993 10 13.1005ZM13.8005 6.98347C13.6447 6.98347 13.4924 6.93727 13.3629 6.85071C13.2333 6.76415 13.1324 6.64113 13.0728 6.49719C13.0131 6.35325 12.9975 6.19486 13.0279 6.04205C13.0583 5.88925 13.1334 5.74889 13.2435 5.63872C13.3537 5.52856 13.494 5.45353 13.6469 5.42314C13.7997 5.39274 13.958 5.40834 14.102 5.46796C14.2459 5.52758 14.369 5.62855 14.4555 5.75809C14.5421 5.88763 14.5883 6.03993 14.5883 6.19573C14.588 6.40466 14.505 6.60498 14.3573 6.7528C14.2097 6.90063 14.0095 6.98391 13.8005 6.9844V6.98347Z" fill="#333333"/>
</svg>
