<svg width="24" height="24" viewBox="0 0 24 24" fill="none" xmlns="http://www.w3.org/2000/svg">
<path d="M21.738 20.482L17.995 16.715C19.4626 14.9264 20.1863 12.642 20.0164 10.3346C19.8465 8.02717 18.7959 5.87342 17.0822 4.31908C15.3684 2.76473 13.1226 1.92879 10.8096 1.98425C8.49665 2.03972 6.29353 2.98234 4.65623 4.61704C3.01894 6.25174 2.07282 8.45336 2.01369 10.7663C1.95456 13.0791 2.78694 15.3262 4.33856 17.0425C5.89019 18.7587 8.04226 19.8127 10.3494 19.9863C12.6565 20.1598 14.9421 19.4397 16.733 17.975L20.476 21.737C20.6426 21.9044 20.8688 21.9987 21.1049 21.9992C21.2218 21.9995 21.3376 21.9768 21.4457 21.9323C21.5539 21.8878 21.6522 21.8225 21.735 21.74C21.8179 21.6575 21.8837 21.5595 21.9287 21.4516C21.9737 21.3437 21.997 21.228 21.9973 21.1111C21.9975 20.9942 21.9748 20.8784 21.9303 20.7703C21.8858 20.6622 21.8205 20.5639 21.738 20.481V20.482ZM11.019 18.22C9.5923 18.2174 8.19837 17.792 7.01337 16.9974C5.82837 16.2029 4.9055 15.0749 4.36139 13.756C3.81728 12.4371 3.67635 10.9865 3.95641 9.58754C4.23647 8.18858 4.92495 6.90403 5.93484 5.89623C6.94473 4.88844 8.23071 4.20263 9.63025 3.92547C11.0298 3.64832 12.4801 3.79227 13.7978 4.33911C15.1156 4.88596 16.2417 5.81117 17.0338 6.99782C17.8259 8.18446 18.2484 9.57928 18.248 11.006C18.2443 12.9207 17.481 14.7558 16.1257 16.1083C14.7704 17.4608 12.9338 18.2203 11.019 18.22Z" fill="#333333"/>
</svg>
