<svg width="20" height="20" viewBox="0 0 20 20" fill="none" xmlns="http://www.w3.org/2000/svg">
<path d="M19 4.70405C18.3255 4.99854 17.6111 5.19163 16.88 5.27705C17.6463 4.82567 18.2221 4.11086 18.5 3.26605C17.773 3.68966 16.9799 3.98815 16.154 4.14905C15.8058 3.78396 15.3867 3.49375 14.9225 3.29619C14.4582 3.09863 13.9585 2.99786 13.454 3.00005C12.4837 2.99499 11.551 3.37491 10.8604 4.05652C10.1698 4.73812 9.77767 5.66576 9.77 6.63605C9.77101 6.91533 9.80457 7.19354 9.87 7.46505C8.4071 7.39529 6.97481 7.02134 5.66452 6.36706C4.35423 5.71278 3.19473 4.79253 2.26 3.66505C1.93155 4.21815 1.75879 4.84977 1.76 5.49305C1.76084 6.0939 1.91118 6.6851 2.19748 7.21336C2.48378 7.74162 2.89704 8.19033 3.4 8.51905C2.81328 8.49944 2.23944 8.34185 1.725 8.05905V8.10405C1.73025 8.94925 2.02828 9.76652 2.56834 10.4167C3.10839 11.0669 3.8571 11.5098 4.687 11.67C4.36953 11.7543 4.04246 11.797 3.714 11.797C3.47901 11.7973 3.24455 11.7745 3.014 11.729C3.25486 12.4576 3.71694 13.0928 4.33587 13.5463C4.95481 13.9998 5.69978 14.2489 6.467 14.259C5.15328 15.2713 3.54045 15.8183 1.882 15.814C1.58721 15.812 1.29276 15.7937 1 15.759C2.69311 16.8306 4.65629 17.3981 6.66 17.395C8.03158 17.4157 9.39359 17.1635 10.6668 16.6532C11.9401 16.1428 13.0992 15.3844 14.0768 14.4221C15.0543 13.4598 15.8308 12.3128 16.3612 11.0477C16.8915 9.78266 17.1651 8.42478 17.166 7.05305L17.154 6.58205C17.8779 6.07289 18.5034 5.43658 19 4.70405Z" fill="#FF9C41"/>
</svg>
