<svg width="20" height="20" viewBox="0 0 20 20" fill="none" xmlns="http://www.w3.org/2000/svg">
<path d="M19.002 4.70411C18.3274 4.99861 17.613 5.19169 16.882 5.27711C17.6482 4.82573 18.2241 4.11092 18.502 3.26611C17.7749 3.68972 16.9819 3.98821 16.156 4.14911C15.8077 3.78402 15.3887 3.49381 14.9244 3.29625C14.4602 3.09869 13.9605 2.99792 13.456 3.00011C12.4857 2.99505 11.5529 3.37497 10.8623 4.05658C10.1717 4.73818 9.77962 5.66582 9.77195 6.63611C9.77296 6.91539 9.80652 7.1936 9.87195 7.46511C8.40905 7.39535 6.97676 7.02141 5.66647 6.36712C4.35619 5.71284 3.19668 4.79259 2.26195 3.66511C1.9335 4.21821 1.76074 4.84984 1.76195 5.49311C1.76279 6.09396 1.91314 6.68516 2.19944 7.21342C2.48574 7.74168 2.89899 8.19039 3.40195 8.51911C2.81523 8.4995 2.24139 8.34191 1.72695 8.05911V8.10411C1.73221 8.94932 2.03023 9.76658 2.57029 10.4168C3.11035 11.067 3.85906 11.5099 4.68895 11.6701C4.37148 11.7544 4.04442 11.7971 3.71595 11.7971C3.48096 11.7973 3.24651 11.7746 3.01595 11.7291C3.25681 12.4576 3.71889 13.0929 4.33783 13.5464C4.95676 13.9998 5.70173 14.249 6.46895 14.2591C5.15523 15.2713 3.5424 15.8183 1.88395 15.8141C1.58916 15.8121 1.29471 15.7937 1.00195 15.7591C2.69507 16.8307 4.65824 17.3981 6.66195 17.3951C8.03353 17.4158 9.39554 17.1636 10.6688 16.6532C11.942 16.1429 13.1012 15.3845 14.0787 14.4222C15.0563 13.4599 15.8328 12.3129 16.3631 11.0478C16.8935 9.78272 17.167 8.42484 17.168 7.05311L17.156 6.58211C17.8798 6.07295 18.5053 5.43664 19.002 4.70411Z" fill="#333333"/>
</svg>
